<svg class="avighna-logo" id="Layer_2" xmlns="http://www.w3.org/2000/svg" viewBox="0 0 240.05 39.76">
                <defs>
                    <style>
                        .avighna-logo-1 {
                            fill: #fff;
                        }

                        .avighna-logo-2 {
                            fill: #ed1c24;
                        }

                        .avighna-logo-2,
                        .avighna-logo-3 {
                            fill-rule: evenodd;
                        }

                        .avighna-logo-3 {
                            fill: #231f20;
                        }
                    </style>
                </defs>
                <g id="Layer_1-2" data-name="Layer_1">
                    <g>
                        <rect class="avighna-logo-1" x="1" y=".65" width="48.61" height="38.45"></rect>
                        <rect class="avighna-logo-1" x="3.42" y="2.29" width="44.13" height="33.2"></rect>
                        <path class="avighna-logo-3" d="M85.43,29.7l-2.25-4.26h-12.56l-2.25,4.26h-4.82l10.42-19.79h5.87l10.39,19.79h-4.82ZM76.87,13.55l-4.3,8.11h8.61l-4.3-8.11h0ZM101.51,29.7l11.58-19.79h-5.33l-8.47,14.48-8.47-14.48h-5.33l11.59,19.79h4.44ZM116.4,9.92h4.76v19.79h-4.76V9.92h0ZM149.24,27.02c-1.24,1.02-2.74,1.82-4.49,2.39-1.75.57-3.67.86-5.77.86s-3.83-.29-5.52-.86c-1.7-.57-3.16-1.38-4.41-2.42-2.26-1.9-3.38-4.3-3.38-7.21,0-1.42.29-2.74.87-3.95.58-1.21,1.43-2.28,2.55-3.21,1.25-1.04,2.72-1.85,4.42-2.43,1.71-.58,3.53-.88,5.48-.88,2.58,0,4.83.4,6.74,1.19,1.91.79,3.47,1.97,4.68,3.51l-4.95,1.75c-.81-.86-1.76-1.5-2.86-1.94-1.09-.44-2.31-.66-3.64-.66s-2.45.17-3.51.5c-1.06.34-1.96.8-2.72,1.39-.76.59-1.34,1.29-1.76,2.09-.42.8-.62,1.68-.62,2.62,0,2.08.96,3.75,2.87,5.03.74.49,1.6.89,2.59,1.18.98.29,2.04.44,3.18.44.99,0,1.93-.1,2.83-.3.89-.2,1.71-.49,2.44-.86.73-.38,1.37-.82,1.92-1.33.55-.51.99-1.07,1.32-1.67h-9.5v-3.83h14.78v1.15c0,3.03-1.17,5.5-3.52,7.43h0ZM176.44,29.7v-8.5h-14.16v8.5h-4.76V9.95h4.76v7.21h14.16v-7.21h4.76v19.76h-4.76ZM204.64,29.7l-13.29-14.13h-.08v14.13h-4.76V9.92h5.55l13.29,14.16h.11v-14.16h4.76v19.79h-5.57ZM235.23,29.7l-2.25-4.26h-12.56l-2.25,4.26h-4.81l10.42-19.79h5.87l10.4,19.79h-4.82ZM226.67,13.55l-4.3,8.11h8.61l-4.3-8.11Z"></path>
                        <path class="avighna-logo-2" d="M0,39.76h50.6V0H0v39.76h0ZM30.96,12.23c-.89-.37-1.92-.93-3.1-.23-.52.31-1.79,1-2.55,1h0c-.76,0-2.03-.69-2.55-1-1.18-.7-2.23-.14-3.13.23,1.01-1.22,2.54-1.95,3.49-1.68.61.17,1.39.72,2.18.72h0s0,0,0,0h0c.78,0,1.57-.55,2.18-.72.96-.26,2.46.46,3.47,1.68h0ZM34.09,16.59c-1.44-.54-2.79-1.49-4.68-.47-.42.23-2.26,1.38-4.1,1.38h0c-1.84,0-3.68-1.15-4.1-1.38-1.89-1.03-3.24-.08-4.68.47,1.62-1.8,3.48-2.94,5.01-2.56.98.25,2.37,1.03,3.76,1.03h0s0,0,0,0h0c1.39,0,2.78-.78,3.76-1.03,1.54-.39,3.39.76,5.01,2.56h0ZM28.44,8.7c-1-.5-1.7.62-2.94.62,0,0-.1,0-.2,0s-.19,0-.2,0c-1.24,0-1.93-1.12-2.94-.62.4-.6,3.14-4.42,3.14-4.42h0s0,0,0,0c0,0,2.74,3.82,3.13,4.42h0ZM37.34,21.19c-2.05-1.16-3.52-1.72-6.95-.23-.47.21-2.78,1.39-5.09,1.4h0c-2.31-.01-4.61-1.19-5.09-1.4-3.43-1.49-4.89-.93-6.95.23,1.55-2.27,4.72-4.36,6.91-3.32.31.15,2.71,1.63,5.13,1.65,2.42-.02,4.82-1.5,5.12-1.65,2.2-1.04,5.37,1.05,6.91,3.32h0ZM47.55,35.5s-8.19-4.74-14.85-1.83c-2.94,1.28-5.73,1.83-7.4,1.83h0c-1.67,0-4.46-.55-7.4-1.83-6.65-2.9-14.85,1.83-14.85,1.83,0,0,6.12-9.18,16.04-5.63,2.64.95,4.67,1.85,6.21,1.85h0s0,0,0,0c0,0,0,0,0,0h0c1.54,0,3.56-.9,6.21-1.84,9.92-3.55,16.04,5.63,16.04,5.63h0ZM41.95,27.68c-2.58-1.57-5.41-2.67-10.35-.91-1.3.47-3.79,1.61-6.28,1.61h-.05c-2.49,0-4.97-1.14-6.28-1.61-4.94-1.77-7.76-.67-10.35.91,1.21-1.75,4.49-6.89,11.41-3.93,2.19.93,4.17,1.46,5.22,1.47h.01s0,0,0,0c0,0,0,0,0,0h0s.02,0,.02,0c1.05,0,3.03-.54,5.22-1.47,6.92-2.95,10.2,2.18,11.41,3.93Z"></path>
                    </g>
                </g>
            </svg>